<svg viewBox="0 0 293.61 64" xmlns="http://www.w3.org/2000/svg"><g fill="#17232b"><path d="m58.9 18.64h5.52l4.28 16.76h.08v-16.76h3.92v28h-4.52l-5.28-20.44h-.08v20.44h-3.92z"/><path d="m79.18 18.64h12v4h-7.6v7.36h6v4h-6v8.6h7.59v4h-12z"/><path d="m96.9 18.64h6.28l2.79 20h.08l2.8-20h6.28v28h-4.13v-21.2h-.08l-3.2 21.2h-3.72l-3.2-21.2h-.08v21.2h-3.82z"/><path d="m121.62 18.64h12v4h-7.62v7.36h6v4h-6v8.6h7.59v4h-12z"/><path d="m138.66 40v-1.6h4.16v1.92c0 2 .88 2.72 2.27 2.72s2.29-.72 2.29-2.8c0-2.32-.88-3.8-3.76-6.32-3.68-3.24-4.88-5.52-4.88-8.72 0-4.4 2.28-7 6.55-7s6.4 2.56 6.4 7v1.16h-4.15v-1.36c0-2-.81-2.76-2.21-2.76s-2.19.76-2.19 2.68.92 3.52 3.79 6c3.68 3.24 4.84 5.48 4.84 9 0 4.56-2.32 7.12-6.64 7.12s-6.47-2.56-6.47-7.04z"/><path d="m157.5 18.64h4.4v28h-4.4z"/><path d="m167.62 40v-1.6h4.15v1.92c0 2 .88 2.72 2.28 2.72s2.28-.72 2.28-2.8c0-2.32-.88-3.8-3.76-6.32-3.68-3.24-4.87-5.52-4.87-8.72 0-4.4 2.27-7 6.55-7s6.4 2.56 6.4 7v1.16h-4.16v-1.36c0-2-.8-2.76-2.2-2.76s-2.2.76-2.2 2.68.92 3.52 3.8 6c3.68 3.24 4.84 5.48 4.84 9 0 4.56-2.32 7.12-6.64 7.12s-6.47-2.56-6.47-7.04z"/><path d="m196.05 18.64h6.28l2.8 20h.08l2.8-20h6.28v28h-4.16v-21.2h-.08l-3.2 21.2h-3.68l-3.17-21.2h-.08v21.2h-3.84z"/><path d="m220.77 18.64h12v4h-7.6v7.36h6v4h-6v8.6h7.6v4h-12z"/><path d="m238.49 18.64h6.72c4.4 0 6.56 2.44 6.56 6.92v14.16c0 4.48-2.16 6.92-6.56 6.92h-6.72zm6.64 24c1.4 0 2.24-.72 2.24-2.72v-14.56c0-2-.84-2.72-2.24-2.72h-2.24v20z"/><path d="m257.93 18.64h4.4v28h-4.4z"/><path d="m272.21 18.64h6l4.56 28h-4.4l-.8-5.56v.08h-5l-.8 5.48h-4.08zm4.79 18.72-2-13.84-1.92 13.84z"/></g><path d="m37.3 40.77 3.68-26.37h-1.01l-3.16 22.63-3.16-22.63h-1.01l3.68 26.37z" fill="#faad11"/><path d="m39.62 50.12 3.22-21.31v21.31h1v-27.77h-1.04l-4.19 27.77z" fill="#faad11"/><path d="m48.31 14.4h1v35.73h-1z" fill="#faad11"/><path d="m30.36 50.12v-20.76l3.22 20.76h1.01l-4.23-27.31v-8.41h-1v8.45 27.27z" fill="#faad11"/><path d="m17.36 50.12v-22.75l5.87 22.75h1.04l-6.92-26.77h-.99v26.77z" fill="#faad11"/><path d="m24.31 50.12h1v-35.72h-1.11v17.65l-4.59-17.65h-1.03l5.73 21.67z" fill="#faad11"/><path d="m11.2 14.4h1v35.73h-1z" fill="#faad11"/></svg>