<svg height="112" viewBox="0 0 87 112" width="87" xmlns="http://www.w3.org/2000/svg"><g fill="none" fill-rule="evenodd" transform="translate(5.55 6.466667)"><path d="m0 59.8284772v-59.8284772l75.075 49.9437723-75.075 49.789561" stroke="#faad11" stroke-linecap="round" stroke-linejoin="round" stroke-width="11"/><path d="m14.72 56.0888889v-6h.76c1 0 1.38.42 1.38 1.72v2.56c0 1.14.08 1.36.2 1.72h2.24c-.22-.52-.24-1.02-.24-1.7v-2.46c0-1.58-.36-2.62-1.46-2.96v-.04c.98-.4 1.44-1.32 1.44-2.76v-.86c0-2.16-.98-3.22-3.26-3.22h-3.26v14zm.8-8h-.8v-4h1c.78 0 1.12.44 1.12 1.44v1.08c0 1.12-.5 1.48-1.32 1.48zm11.06 8v-2h-3.8v-4.3h3.02v-2h-3.02v-3.7h3.8v-2h-6v14zm2.72 0 .4-2.74h2.5v-.04l.4 2.78h2.2l-2.28-14h-2.98l-2.28 14zm2.64-4.64h-1.98l.96-6.92h.04zm7.28 4.64c2.2 0 3.28-1.22 3.28-3.46v-7.08c0-2.24-1.08-3.46-3.28-3.46h-3.36v14zm-.04-2h-1.12v-10h1.12c.7 0 1.12.36 1.12 1.36v7.28c0 1-.42 1.36-1.12 1.36z" fill="#faad11" fill-rule="nonzero"/></g></svg>