<svg viewBox="0 0 64 64" xmlns="http://www.w3.org/2000/svg"><g fill="#17232b"><path d="m27.6 63.19a1 1 0 0 1 -.93-.64l-5.14-13-13-5.14a1 1 0 0 1 0-1.86l13-5.14 5.14-13a1 1 0 0 1 .93-.63 1 1 0 0 1 .93.63l5.13 13 13 5.14a1 1 0 0 1 0 1.86l-13 5.14-5.13 13a1 1 0 0 1 -.93.64zm-16-19.73 11.08 4.36a1 1 0 0 1 .56.57l4.36 11.07 4.4-11.07a1 1 0 0 1 .57-.57l11.03-4.36-11.07-4.37a1 1 0 0 1 -.57-.56l-4.36-11.08-4.37 11.08a1 1 0 0 1 -.56.56z"/><path d="m49.45 39.25a1 1 0 0 1 -.94-.63l-2.78-7.06-7.06-2.78a1 1 0 0 1 0-1.86l7.06-2.78 2.78-7.06a1 1 0 0 1 1.87 0l2.78 7.06 7.06 2.78a1 1 0 0 1 0 1.86l-7.06 2.78-2.78 7.06a1 1 0 0 1 -.93.63zm-7.68-11.4 5.1 2a1 1 0 0 1 .56.57l2 5.1 2-5.1a1 1 0 0 1 .56-.57l5.11-2-5.11-2a1 1 0 0 1 -.56-.57l-2-5.1-2 5.1a1 1 0 0 1 -.56.57z"/><path d="m34.36 17.93a1 1 0 0 1 -.93-.64l-1.76-4.44-4.44-1.76a1 1 0 0 1 0-1.86l4.44-1.75 1.76-4.48a1 1 0 0 1 1.86 0l1.71 4.48 4.45 1.75a1 1 0 0 1 0 1.86l-4.45 1.76-1.75 4.44a1 1 0 0 1 -.89.64zm-4-7.77 2.49 1a1 1 0 0 1 .57.56l1 2.49 1-2.49a1 1 0 0 1 .56-.56l2.5-1-2.5-1a1 1 0 0 1 -.56-.56l-1-2.5-1 2.5a1 1 0 0 1 -.57.56z"/></g></svg>