<svg viewBox="0 0 64 64" xmlns="http://www.w3.org/2000/svg"><g fill="#17232b"><path d="m50 61a1 1 0 0 1 -.51-.14l-17.39-10.28-17.42 10.3a1 1 0 0 1 -1.49-1.07l4.27-20-15-13.64a1 1 0 0 1 .54-1.75l20.06-2.07 8.12-18.73a1 1 0 0 1 1.83 0l8.13 18.73 20.06 2.07a1 1 0 0 1 .57 1.73l-15 13.64 4.27 20a1 1 0 0 1 -.4 1 1 1 0 0 1 -.64.21zm-44.57-34.82 13.8 12.52a1 1 0 0 1 .31.95l-3.91 18.35 16-9.44a1 1 0 0 1 1 0l16 9.44-3.98-18.35a1 1 0 0 1 .35-.95l13.8-12.52-18.4-1.9a1 1 0 0 1 -.82-.59l-7.48-17.16-7.45 17.16a1 1 0 0 1 -.82.59z"/><path d="m43.53 21.57a1 1 0 0 1 -.7-1.71l12.55-12.55a1 1 0 0 1 1.41 0 1 1 0 0 1 0 1.42l-12.55 12.55a1 1 0 0 1 -.71.29z"/><path d="m41.85 17a1 1 0 0 1 -.71-.29 1 1 0 0 1 0-1.42l8-8a1 1 0 0 1 1.41 0 1 1 0 0 1 0 1.42l-8 8a1 1 0 0 1 -.7.29z"/><path d="m49.14 22.15a1 1 0 0 1 -.71-.3 1 1 0 0 1 0-1.42l9.57-9.36a1 1 0 1 1 1.4 1.43l-9.56 9.36a1 1 0 0 1 -.7.29z"/></g></svg>